<?xml version="1.0" standalone="no"?><!DOCTYPE svg PUBLIC "-//W3C//DTD SVG 1.1//EN" "http://www.w3.org/Graphics/SVG/1.1/DTD/svg11.dtd"><svg t="1571622268717" class="icon" viewBox="0 0 1024 1024" version="1.1" xmlns="http://www.w3.org/2000/svg" p-id="2504" xmlns:xlink="http://www.w3.org/1999/xlink" width="200" height="200"><defs><style type="text/css"></style></defs><path d="M939.008 64.512c-3.072-2.048-10.24-6.144-19.456-6.144-10.24 0-20.48 3.072-29.696 11.264-2.048 2.048-6.144 4.096-8.192 7.168-34.816 27.648-60.416 49.152-115.712 49.152-44.032 0-103.424-14.336-186.368-44.032-56.32-20.48-113.664-30.72-171.008-30.72h-2.048c-46.08 0-90.112 6.144-134.144 18.432-70.656 19.456-115.712 49.152-123.904 54.272l-4.096 4.096c-12.288 7.168-17.408 20.48-12.288 32.768l244.736 578.56c-80.896 18.432-138.24 54.272-134.144 87.04 5.12 37.888 93.184 56.32 196.608 41.984 4.096-1.024 7.168-1.024 11.264-2.048 3.072 0 6.144-1.024 9.216-2.048 93.184-17.408 161.792-56.32 156.672-91.136-5.12-35.84-83.968-54.272-180.224-44.032l-92.16-217.088 2.048-3.072c30.72-49.152 65.536-104.448 196.608-104.448 22.528 0 49.152 2.048 76.8 6.144 9.216 1.024 19.456 2.048 28.672 2.048 27.648 0 54.272-4.096 78.848-13.312 2.048-1.024 4.096-1.024 7.168-2.048 30.72-12.288 61.44-31.744 90.112-57.344 44.032-40.96 84.992-98.304 109.568-158.72 9.216-23.552 16.384-45.056 19.456-62.464 3.072-17.408 5.12-41.984-14.336-54.272z m-63.488 110.592c-21.504 45.056-51.2 87.04-83.968 118.784-45.056 43.008-93.184 65.536-143.36 65.536-7.168 0-15.36 0-21.504-1.024-29.696-3.072-58.368-6.144-83.968-6.144-63.488 0-113.664 11.264-153.6 32.768-36.864 19.456-59.392 46.08-73.728 65.536l-122.88-288.768c16.384-10.24 50.176-28.672 97.28-40.96 37.888-10.24 75.776-15.36 114.688-15.36 50.176 0 102.4 9.216 152.576 27.648 89.088 31.744 155.648 46.08 209.92 46.08 10.24 0 20.48-1.024 29.696-2.048 40.96-4.096 68.608-20.48 92.16-35.84-3.072 11.264-8.192 22.528-13.312 33.792z" p-id="2505" fill="#ffffff"></path></svg>