<?xml version="1.0" standalone="no"?><!DOCTYPE svg PUBLIC "-//W3C//DTD SVG 1.1//EN" "http://www.w3.org/Graphics/SVG/1.1/DTD/svg11.dtd"><svg t="1552893700131" class="icon" style="" viewBox="0 0 1024 1024" version="1.1" xmlns="http://www.w3.org/2000/svg" p-id="6778" xmlns:xlink="http://www.w3.org/1999/xlink" width="200" height="200"><defs><style type="text/css"></style></defs><path d="M512 82.10101C274.618182 82.10101 82.10101 274.618182 82.10101 512S274.618182 941.89899 512 941.89899 941.89899 749.381818 941.89899 512 749.381818 82.10101 512 82.10101z m125.931313 430.933333c0 69.430303-56.50101 125.931313-125.931313 125.931314h-0.517172c-12.670707-0.129293-23.014141-10.472727-23.014141-23.272728s10.472727-23.272727 23.272727-23.272727h0.387879c43.70101-0.129293 79.256566-35.684848 79.256566-79.385859 0-43.830303-35.555556-79.385859-79.385859-79.385858s-79.385859 35.555556-79.385859 79.385858c0 1.939394 0.129293 3.878788 0.258586 5.818182 0.905051 12.8-8.662626 23.919192-21.591919 24.824243-12.8 0.905051-23.919192-8.662626-24.824242-21.59192-0.258586-3.10303-0.387879-6.206061-0.387879-9.179797 0-69.430303 56.50101-125.931313 125.931313-125.931314s125.931313 56.630303 125.931313 126.060606zM718.610101 726.626263c-55.208081 55.208081-128.517172 85.591919-206.610101 85.591919S360.59798 781.834343 305.389899 726.626263 219.79798 598.109091 219.79798 520.016162c0-77.963636 30.383838-151.272727 85.462626-206.480808 55.078788-55.208081 128.258586-85.591919 206.222222-85.721213 12.8 0 23.272727 10.343434 23.272728 23.272728 0 12.8-10.343434 23.272727-23.272728 23.272727-135.240404 0.258586-245.139394 110.416162-245.139394 245.656566 0 135.49899 110.157576 245.656566 245.656566 245.656565s245.656566-110.157576 245.656566-245.656565v-0.517172c0-12.8 10.472727-23.272727 23.272727-23.272727s23.272727 10.472727 23.272727 23.272727v0.517172c0 78.092929-30.383838 151.40202-85.591919 206.610101z" fill="" p-id="6779"></path></svg>