<?xml version="1.0" standalone="no"?><!DOCTYPE svg PUBLIC "-//W3C//DTD SVG 1.1//EN" "http://www.w3.org/Graphics/SVG/1.1/DTD/svg11.dtd"><svg t="1558753254657" class="icon" style="" viewBox="0 0 1024 1024" version="1.1" xmlns="http://www.w3.org/2000/svg" p-id="3425" xmlns:xlink="http://www.w3.org/1999/xlink" width="200" height="200"><defs><style type="text/css"></style></defs><path d="M957.115 178.343c0-60.654-49.346-110-110-110H178.087c-60.654 0-110 49.346-110 110v669.06c0 60.654 49.346 110 110 110h669.029c19.506 0 37.838-5.11 53.74-14.052a30.093 30.093 0 0 1-1.57-1.451L713.848 756.463c-55.321 45.742-126.289 73.23-203.679 73.23-176.645 0-319.843-143.199-319.843-319.843S333.525 190.006 510.17 190.006s319.843 143.199 319.843 319.843c0 77.649-27.678 148.829-73.696 204.23l185.394 185.394a30.22 30.22 0 0 1 1.425 1.539c8.897-15.872 13.979-34.158 13.979-53.611V178.343z" fill="" p-id="3426"></path><path d="M749.618 408.725c-13.084-30.935-31.828-58.73-55.711-82.613s-51.678-42.627-82.613-55.711c-31.996-13.533-66.019-20.395-101.124-20.395s-69.128 6.862-101.124 20.395c-30.935 13.084-58.73 31.828-82.613 55.711-23.883 23.883-42.627 51.678-55.711 82.613-13.533 31.996-20.395 66.019-20.395 101.124 0 35.105 6.862 69.128 20.395 101.124 13.084 30.935 31.828 58.73 55.711 82.613 23.883 23.883 51.678 42.627 82.613 55.711 31.996 13.533 66.019 20.395 101.124 20.395s69.128-6.862 101.124-20.395c30.935-13.084 58.73-31.828 82.613-55.711 23.883-23.883 42.627-51.678 55.711-82.613 13.533-31.996 20.395-66.019 20.395-101.124 0-35.105-6.862-69.128-20.395-101.124z m-74.745 261.72c-42.902 42.902-99.943 66.53-160.617 66.53-16.568 0-30-13.432-30-30s13.432-30 30-30c92.165 0 167.147-74.982 167.147-167.147 0-16.568 13.432-30 30-30s30 13.432 30 30c0 60.673-23.627 117.714-66.53 160.617z" fill="" p-id="3427"></path></svg>