<?xml version="1.0" standalone="no"?><!DOCTYPE svg PUBLIC "-//W3C//DTD SVG 1.1//EN" "http://www.w3.org/Graphics/SVG/1.1/DTD/svg11.dtd"><svg t="1571649581286" class="icon" viewBox="0 0 1024 1024" version="1.1" xmlns="http://www.w3.org/2000/svg" p-id="2493" xmlns:xlink="http://www.w3.org/1999/xlink" width="200" height="200"><defs><style type="text/css"></style></defs><path d="M917.05832 291.042326c-0.016-0.022999 0-0.057998-0.016-0.088998-0.423989-1.995947-1.166969-3.871898-2.118944-5.644851-0.217994-0.409989-0.436988-0.795979-0.662982-1.188968-1.082971-1.780953-2.298939-3.453909-3.7989-4.879872v-0.011999L623.710055 6.715823c-0.012 0-0.033999-0.01-0.034-0.028999l-0.033999-0.029c-0.018-0.015-0.051999-0.015-0.068998-0.031999-1.465961-1.399963-3.184916-2.527933-4.993868-3.527907a18.109523 18.109523 0 0 0-1.356964-0.683982c-1.815952-0.862977-3.744901-1.572959-5.797848-1.981947-0.177995-0.012-0.336991-0.012-0.483987-0.018-1.389963-0.252993-2.780927-0.413989-4.263887-0.413989H194.378375c-38.108995 0-69.123177 29.608219-69.123178 66.019259v891.942482c0 36.40404 31.014182 66.038259 69.123178 66.038259h654.036755c38.111995 0 69.114178-29.634219 69.114177-66.038259v-662.472532a23.14539 23.14539 0 0 0-0.470987-4.446883z m-81.691846-18.483513h-204.644604V78.080941l204.644604 194.477872m34.148099 685.423928c0 11.112707-9.460751 20.173468-21.100443 20.173468H194.378375c-11.661693 0-21.123443-9.060761-21.123443-20.173468V66.026259c0-11.130707 9.46475-20.169468 21.123443-20.169468h388.34576v249.620418c0 12.662666 10.768716 22.927395 23.998367 22.927396h262.805071l-0.013 639.578136" p-id="2494" fill="#ffffff"></path><path d="M719.944517 743.988383H309.536338c-12.590668 0-22.794399 10.744717-22.794399 24.011367 0 13.27565 10.200731 24.010367 22.794399 24.010367h410.403179c12.582668 0 22.802399-10.733717 22.802399-24.010367-0.007-13.26665-10.213731-24.011367-22.797399-24.011367zM719.944517 585.987549H309.536338c-12.590668 0-22.794399 10.743717-22.794399 23.998367 0 13.27665 10.200731 24.010367 22.794399 24.010367h410.403179c12.582668 0 22.802399-10.721717 22.802399-24.010367-0.007-13.254651-10.213731-23.998367-22.797399-23.998367zM286.72594 452.001082c0 13.25665 10.203731 23.999367 22.796399 23.999367h410.405179c12.594668 0 22.802399-10.742717 22.802398-23.999367 0-13.27065-10.194731-24.007367-22.802398-24.007367H309.522339c-12.585668 0.007-22.796399 10.734717-22.796399 24.007367z" p-id="2495" fill="#ffffff"></path></svg>