<?xml version="1.0" standalone="no"?><!DOCTYPE svg PUBLIC "-//W3C//DTD SVG 1.1//EN" "http://www.w3.org/Graphics/SVG/1.1/DTD/svg11.dtd"><svg t="1562400410588" class="icon" viewBox="0 0 1024 1024" version="1.1" xmlns="http://www.w3.org/2000/svg" p-id="1774" xmlns:xlink="http://www.w3.org/1999/xlink" width="200" height="200"><defs><style type="text/css"></style></defs><path d="M832 128H192a64.19 64.19 0 0 0-64 64v640a64.19 64.19 0 0 0 64 64h640a64.19 64.19 0 0 0 64-64V192a64.19 64.19 0 0 0-64-64zM605.79 308.54A224 224 0 0 1 736 512q0 2.73-0.07 5.45A95.84 95.84 0 0 0 704 512a192 192 0 0 0-110.2-173.74 95.41 95.41 0 0 0 11.99-29.72zM512 224a64 64 0 1 1-64 64 64 64 0 0 1 64-64z m-93.79 84.54a95.41 95.41 0 0 0 12 29.72A192 192 0 0 0 320 512a95.84 95.84 0 0 0-31.93 5.45q-0.07-2.72-0.07-5.45a224 224 0 0 1 130.21-203.46zM320 672a64 64 0 1 1 64-64 64 64 0 0 1-64 64z m192 64a223 223 0 0 1-138.73-48.13 96.53 96.53 0 0 0 23.53-22.26 192 192 0 0 0 230.4 0 96.53 96.53 0 0 0 23.53 22.26A223 223 0 0 1 512 736z m192-64a64 64 0 1 1 64-64 64 64 0 0 1-64 64z" p-id="1775"></path></svg>