<?xml version="1.0" standalone="no"?><!DOCTYPE svg PUBLIC "-//W3C//DTD SVG 1.1//EN" "http://www.w3.org/Graphics/SVG/1.1/DTD/svg11.dtd"><svg t="1553082286392" class="icon" style="" viewBox="0 0 1024 1024" version="1.1" xmlns="http://www.w3.org/2000/svg" p-id="1289" xmlns:xlink="http://www.w3.org/1999/xlink" width="200" height="200"><defs><style type="text/css"></style></defs><path d="M512 972.8c-126.549333 0-235.997867-45.243733-325.290667-134.519467l-0.068266-0.068266-0.068267-0.068267C96.4608 747.997867 51.2 638.549333 51.2 512c0-126.549333 45.243733-236.270933 134.5024-326.126933C275.729067 96.443733 385.450667 51.2 512 51.2c126.583467 0 236.066133 45.277867 325.358933 134.587733C927.522133 275.950933 972.8 385.416533 972.8 512c0 126.634667-45.602133 236.117333-135.509333 325.444267C748.117333 927.197867 638.634667 972.8 512 972.8z m-252.0064-159.658667C331.997867 874.769067 414.583467 904.533333 512 904.533333c109.294933 0 199.901867-37.7344 277.009067-115.3536C866.798933 711.901867 904.533333 621.294933 904.533333 512c0-97.723733-29.952-180.514133-91.357866-252.0576L259.9936 813.141333zM512 119.466667c-109.397333 0-200.328533 37.512533-278.033067 114.670933C156.9792 311.671467 119.466667 402.602667 119.466667 512c0 98.1504 30.208 181.230933 92.142933 252.9792L764.928 211.6608C692.718933 149.486933 609.8432 119.466667 512 119.466667z" p-id="1290"></path></svg>