<?xml version="1.0" standalone="no"?><!DOCTYPE svg PUBLIC "-//W3C//DTD SVG 1.1//EN" "http://www.w3.org/Graphics/SVG/1.1/DTD/svg11.dtd"><svg t="1539656823679" class="icon" style="" viewBox="0 0 1024 1024" version="1.1" xmlns="http://www.w3.org/2000/svg" p-id="15446" xmlns:xlink="http://www.w3.org/1999/xlink" width="128" height="128"><defs><style type="text/css"></style></defs><path d="M259.1 868.3c-1.9 0.7-4.2 1.4-6.8 2m88.8-0.5M501.4 872.4" p-id="15447"></path><path d="M448.1 352.4c-11.8-11.8-24.7-22.1-38.4-30.8 22.6-27.2 36.2-62.1 36.2-100.1 0-86.6-70.4-157-157-157s-157 70.4-157 157c0 38.2 13.7 73.2 36.4 100.4-13.6 8.7-26.3 18.9-37.9 30.6-42.4 42.4-65.8 98.8-65.8 158.9 0 37.5 9.5 64.3 29 81.8 15 13.5 35.1 20.7 61.6 22 19.6 0.9 41.4-1.3 64.5-3.7 22.4-2.3 45.5-4.7 69.6-4.7s47.3 2.4 69.6 4.7c19.4 2 37.9 3.9 55 3.9 3.2 0 6.4-0.1 9.5-0.2 26.4-1.3 46.6-8.4 61.6-22 19.5-17.6 29-44.4 29-81.8-0.1-60.2-23.5-116.6-65.9-159z m-159.3-224c51.3 0 93 41.7 93 93s-41.7 93-93 93-93-41.7-93-93 41.8-93 93-93zM442 545.6c-10 9-43.9 5.5-76.7 2.2-22.8-2.3-48.7-5-76.2-5s-53.3 2.7-76.2 5c-32.8 3.4-66.7 6.8-76.7-2.2-5-4.5-7.8-17-7.8-34.3 0-65.4 39.3-121.8 95.5-146.8 19.8 9 41.7 14 64.8 14 23.2 0 45.3-5.1 65.1-14.2 56.4 25 95.9 81.5 95.9 147 0.2 17.3-2.7 29.8-7.7 34.3zM894.5 697.1c-11.8-11.8-24.7-22.1-38.4-30.8 22.6-27.2 36.2-62.1 36.2-100.1 0-86.6-70.4-157-157-157s-157 70.4-157 157c0 38.2 13.7 73.2 36.4 100.4-13.6 8.7-26.3 18.9-37.9 30.6C534.3 739.6 511 796 511 856c0 37.5 9.5 64.3 29 81.8 15 13.5 35.1 20.7 61.6 22 19.6 0.9 41.4-1.3 64.5-3.7 22.4-2.3 45.5-4.7 69.6-4.7s47.3 2.4 69.6 4.7c19.4 2 37.9 3.9 55 3.9 3.2 0 6.4-0.1 9.5-0.2 26.4-1.3 46.6-8.4 61.6-22 19.5-17.6 29-44.4 29-81.8-0.1-60-23.5-116.4-65.9-158.9z m-159.2-224c51.3 0 93 41.7 93 93s-41.7 93-93 93-93-41.7-93-93 41.7-93 93-93z m153.1 417.2c-10 9-43.9 5.5-76.7 2.2-22.8-2.3-48.7-5-76.2-5s-53.3 2.7-76.2 5c-32.8 3.4-66.7 6.8-76.7-2.2-5-4.5-7.8-17-7.8-34.3 0-65.4 39.3-121.8 95.5-146.8 19.8 9 41.7 14 64.8 14 23.2 0 45.3-5.1 65.1-14.2 56.4 25 95.9 81.5 95.9 147 0.2 17.3-2.7 29.8-7.7 34.3zM842.3 188.9c-15.4-8.7-34.9-3.3-43.6 12l-26.5 46.6c-3.7-4.6-7.6-9.2-11.6-13.6-28.8-31.9-62.9-57.6-101.4-76.3-39.9-19.4-82.7-30.4-127.3-32.7-0.4 0-0.8 0-1.1-0.1-17.6-0.9-32.5 12.7-33.4 30.3-0.9 17.7 12.8 32.8 30.5 33.6h0.7c93.9 4.9 174 58 217.7 134 5.5 9.5 15.3 15.6 26.2 16.2h1.1c11.7 0.6 23.3-5.3 29.5-16.2l51.3-90.3c8.6-15.3 3.2-34.8-12.1-43.5zM422 856.2c-0.2 0-0.4-0.1-0.7-0.1-92.9-14.7-167-75.9-202.5-156.1-4.4-10-13.5-17.2-24.3-18.9h-0.2c-2-0.3-3.9-0.4-5.8-0.4-12.1-0.4-23.9 6.1-29.7 17.7l-46.5 92.9c-7.9 15.8-1.5 35 14.3 42.9 4.6 2.3 9.5 3.4 14.3 3.4 11.7 0 23-6.5 28.6-17.7l20.3-40.6c1.8 2.6 3.5 5.1 5.4 7.6 25.3 34.8 56.5 63.9 92.8 86.5 37.6 23.5 79.1 38.9 123.2 45.9 0.4 0.1 0.7 0.1 1.1 0.2 17.4 2.7 33.6-9.3 36.4-26.6 2.9-17.6-9.2-34-26.7-36.7z" p-id="15448"></path></svg>