<?xml version="1.0" standalone="no"?><!DOCTYPE svg PUBLIC "-//W3C//DTD SVG 1.1//EN" "http://www.w3.org/Graphics/SVG/1.1/DTD/svg11.dtd"><svg t="1560219309003" class="icon" style="" viewBox="0 0 1024 1024" version="1.1" xmlns="http://www.w3.org/2000/svg" p-id="4299" xmlns:xlink="http://www.w3.org/1999/xlink" width="200" height="200"><defs><style type="text/css"></style></defs><path d="M892.16 475.428571l-210.651429-122.331428A84.114286 84.114286 0 0 0 566.857143 384l-6.4 11.154286v-292.571429a89.417143 89.417143 0 0 0-178.834286 0v513.462857l-75.885714-75.885714a136.96 136.96 0 0 0-193.828572 0 73.142857 73.142857 0 0 0 0 104.411429l248.685715 248.685714q7.131429 7.68 14.811428 14.811428l15.36 15.36a74.605714 74.605714 0 0 0 18.285715 13.348572 372.114286 372.114286 0 0 0 222.72 73.142857 301.714286 301.714286 0 0 0 301.714285-301.714286v-164.571428A83.748571 83.748571 0 0 0 892.16 475.428571z" p-id="4300"></path></svg>