<?xml version="1.0" standalone="no"?><!DOCTYPE svg PUBLIC "-//W3C//DTD SVG 1.1//EN" "http://www.w3.org/Graphics/SVG/1.1/DTD/svg11.dtd"><svg t="1561599549510" class="icon" viewBox="0 0 1024 1024" version="1.1" xmlns="http://www.w3.org/2000/svg" p-id="5298" xmlns:xlink="http://www.w3.org/1999/xlink" width="200" height="200"><defs><style type="text/css"></style></defs><path d="M909.95264 0c55.296 0 101.376 46.592 101.376 103.68v665.216l-217.664-220.16-103.68 104.832-290.304-293.568L0.00064 764.16V103.68C0.00064 46.592 46.08064 0 102.52864 0h807.424z m-219.968 765.376l103.68-103.68 218.88 220.16v38.464c0 57.088-46.08 103.68-102.592 103.68H102.52864A103.36 103.36 0 0 1 0.00064 920.32c0-27.968 10.368-53.568 29.952-73.408L399.68064 472.96l290.304 292.416z m93.312-435.712c43.776 0 79.424-36.096 79.424-80.384 0-44.224-35.648-80.384-79.424-80.384s-79.488 36.16-79.488 80.384c0 44.288 35.712 80.384 79.488 80.384z" p-id="5299"></path></svg>