<?xml version="1.0" standalone="no"?><!DOCTYPE svg PUBLIC "-//W3C//DTD SVG 1.1//EN" "http://www.w3.org/Graphics/SVG/1.1/DTD/svg11.dtd"><svg t="1562320374752" class="icon" viewBox="0 0 1024 1024" version="1.1" xmlns="http://www.w3.org/2000/svg" p-id="3787" xmlns:xlink="http://www.w3.org/1999/xlink" width="200" height="200"><defs><style type="text/css"></style></defs><path d="M657.1 191.8H324.9c-6.6 0-11.9-5.4-11.9-11.9v-105c0-6.6 5.4-11.9 11.9-11.9H657c6.6 0 11.9 5.4 11.9 11.9v104.9c0.1 6.6-5.3 12-11.8 12z" p-id="3788"></path><path d="M329.1 680c-32 0-58 26-58 58s26 58 58 58 58-26 58-58-25.9-58-58-58z m505.7-552h-145v79c0 6.5-5.4 11.8-12 11.8h-374c-6.6 0-12-5.3-12-11.8v-79h-145c-17 0-31 13.8-31 30.6V929c0 16.8 14 30.6 31 30.6h688c17 0 31-13.8 31-30.6V158.6c0-16.8-13.9-30.6-31-30.6zM329.1 841.4c-57.1 0-103.4-46.3-103.4-103.4S272 634.6 329.1 634.6 432.5 680.9 432.5 738s-46.3 103.4-103.4 103.4z m111-450.3L328.2 503c-4.7 4.7-10.9 7-17.1 7-6.2 0-12.4-2.3-17.1-7l-79.8-79.8c-9.3-9.3-9.3-24.6 0-33.9 9.3-9.3 24.6-9.3 33.9 0l62.9 62.9 95.1-95.1c9.3-9.3 24.6-9.3 33.9 0 9.5 9.4 9.5 24.6 0.1 34zM763 791.4c0 13.2-10.8 24-24 24H536c-13.2 0-24-10.8-24-24s10.8-24 24-24h203c13.2 0 24 10.8 24 24z m0-101c0 13.2-10.8 24-24 24H536c-13.2 0-24-10.8-24-24s10.8-24 24-24h203c13.2 0 24 10.8 24 24z m0-210c0 13.2-10.8 24-24 24H536c-13.2 0-24-10.8-24-24s10.8-24 24-24h203c13.2 0 24 10.8 24 24z m0-104c0 13.2-10.8 24-24 24H536c-13.2 0-24-10.8-24-24s10.8-24 24-24h203c13.2 0 24 10.8 24 24z" p-id="3789"></path></svg>