<?xml version="1.0" standalone="no"?><!DOCTYPE svg PUBLIC "-//W3C//DTD SVG 1.1//EN" "http://www.w3.org/Graphics/SVG/1.1/DTD/svg11.dtd"><svg t="1572231744925" class="icon" viewBox="0 0 1195 1024" version="1.1" xmlns="http://www.w3.org/2000/svg" p-id="2413" xmlns:xlink="http://www.w3.org/1999/xlink" width="233.3984375" height="200"><defs><style type="text/css"></style></defs><path d="M1191.338392 626.921774c-0.497929 11.371623-15.543461 24.075542-46.428519 40.211135-63.546512 33.11901-393.027506 168.622998-463.141298 205.133308s-109.086833 36.200787-164.491532 9.68943S111.330297 713.857494 48.174054 683.7126C16.643034 668.626696 0.561271 655.909319 0.009512 643.905192v120.444998c0 12.017585 16.579691 24.775334 48.164542 39.874696 63.156243 30.185266 413.738662 171.78552 469.102989 198.256505s94.337367 26.915083 164.491532-9.729803 399.540956-171.987383 463.141298-205.160223c32.2981-16.835385 46.670755-29.94303 46.670755-41.812582v-118.762806z" p-id="2414"></path><path d="M1191.284562 430.549326c-0.497929 11.371623-15.543461 24.035169-46.374689 40.170762-63.546512 33.11901-392.960218 168.60954-463.141298 205.160223s-109.086833 36.24116-164.491532 9.729803S111.330297 517.485045 48.174054 487.299779C16.643034 472.254247 0.561271 459.496498 0.009512 447.532743v120.458456c0 12.004127 16.579691 24.721504 48.164542 39.807408 63.156243 30.198724 413.684832 171.798977 469.102989 198.256505s94.337367 26.915083 164.491532-9.675973 399.540956-172.041213 463.141298-205.160223c32.2981-16.875757 46.670755-29.983403 46.670755-41.852955v-118.762805z" p-id="2415"></path><path d="M1191.284562 226.882889c0.592132-12.111788-15.247395-22.743245-47.101396-34.451306-61.985437-22.649043-389.434342-153.025707-452.133029-176.065019S603.809036-5.582686 530.236656 20.874841 107.750591 184.034076 45.765154 208.257652c-31.060006 12.219448-46.199741 23.42958-45.755642 35.541367v120.512286c0 12.004127 16.579691 24.721504 48.164542 39.807409 63.156243 30.198724 413.684832 171.852808 469.102989 198.310334s94.32391 26.807423 164.491532-9.729802S1081.363361 420.61766 1144.963704 387.49865c32.2981-16.875757 46.670755-29.983403 46.670754-41.852955v-118.762806h-0.349896z m-764.576775 114.039209l276.108384-42.391257-83.436759 122.288682-192.617795-79.897425z m610.716701-110.123064l-163.307269 64.5962-17.73704 6.944092-163.199608-64.596201 180.828988-71.499919 163.361099 64.596201zM557.986107 112.480327l-26.713221-49.241145 83.315641 32.526878L693.140198 70.048698l-21.249458 50.923338 80.032 29.969945-103.259717 10.766034-23.133514 55.606562-37.344679-62.012352-119.166532-10.766033z m-205.698525 69.521661c81.525788 0 147.561945 25.569329 147.561944 57.140722s-66.036157 57.20801-147.561944 57.20801-147.615775-25.636617-147.615775-57.20801 66.089987-57.248382 147.615775-57.248383z" p-id="2416"></path></svg>