<?xml version="1.0" standalone="no"?><!DOCTYPE svg PUBLIC "-//W3C//DTD SVG 1.1//EN" "http://www.w3.org/Graphics/SVG/1.1/DTD/svg11.dtd"><svg t="1539656985196" class="icon" style="" viewBox="0 0 1024 1024" version="1.1" xmlns="http://www.w3.org/2000/svg" p-id="17226" xmlns:xlink="http://www.w3.org/1999/xlink" width="128" height="128"><defs><style type="text/css"></style></defs><path d="M512.458441 673.454182c-88.570221 0-160.628374-72.057129-160.628374-160.628374 0-88.570221 72.058153-160.627351 160.628374-160.627351 88.571245 0 160.628374 72.057129 160.628374 160.627351C673.086815 601.397053 601.029686 673.454182 512.458441 673.454182zM512.458441 438.157201c-41.173748 0-74.670653 33.496905-74.670653 74.66963s33.496905 74.670653 74.670653 74.670653c41.172725 0 74.670653-33.496905 74.670653-74.670653S553.631166 438.157201 512.458441 438.157201z" p-id="17227"></path><path d="M599.87949 921.606958 431.591669 921.606958l-42.97886-42.97886c0 0-0.013303 0.303922 0.01228 0.874927-0.12689-2.835581-2.016937-28.167526-29.203112-44.225247-10.321066-6.094812-25.207102-9.317203-43.049468-9.317203-25.173332 0-47.258327 6.391571-47.470151 6.456039l-48.50369-17.579377-100.624768-153.809061 20.519336-63.637366c0 0-0.358157 0.115634-0.99977 0.405229 3.25309-1.464351 31.754215-15.708773 30.728862-64.262606-0.450255-21.335934-7.045463-38.929638-19.60143-52.292993-10.07445-10.722202-20.62883-15.164375-20.73423-15.208377 0.446162 0.185218 0.688685 0.265036 0.688685 0.265036l-21.355377-63.289442 116.239398-183.535083 59.487859-13.196557-0.232291-0.388856c6.250354 3.885494 26.466792 13.731746 44.718481 13.731746 0.001023 0 0.00307 0 0.004093 0 7.212262 0 12.825097-1.272993 17.666358-4.52506 26.491351-17.793248 40.22412-65.424058 42.450834-77.238129l42.234917-34.894741 164.81779 0 42.97886 42.97886c0 0 0.007163-0.216941-0.00614-0.633427 0.051165 1.644453 1.705851 40.543392 39.98262 63.682391 11.289114 6.824429 22.437012 10.141988 34.079166 10.141988 18.544355 0 32.18912-8.736988 32.32522-8.826016-0.396019 0.257873-0.595564 0.408299-0.595564 0.408299l61.657268 13.166881 109.300358 183.586249-21.3871 62.056358c0 0 0.207731-0.073678 0.593518-0.237407-0.110517 0.047072-11.269671 4.865821-21.73707 15.923668-12.840446 13.5629-19.081591 30.211069-19.081591 50.894134 0 21.596877 5.727445 38.319747 17.022699 49.701982 5.942339 5.989411 12.264325 9.067516 12.31242 9.083889l22.081924 65.220421L800.10572 813.939797l-54.772464 14.009062c0 0 0.138146 0.072655 0.408299 0.201591-0.194428-0.092098-15.521508-7.281847-34.561144-7.281847-10.602476 0-20.354584 2.279926-28.981055 6.77531-25.555026 13.31833-37.669948 47.424102-40.181141 59.442834l0.061398-0.308015L599.87949 921.606958zM465.970664 835.649238l102.82283 0c1.449002-3.434216 3.065825-7.011694 4.864798-10.676154 16.266475-33.137725 40.061414-58.573023 68.814272-73.557296 21.016663-10.952446 44.132126-16.505929 68.706825-16.505929 13.373589 0 25.677822 1.682315 36.227086 3.970428l63.435775-92.207052c-0.106424-0.106424-0.211824-0.212848-0.319272-0.320295-19.144012-19.292392-41.964764-54.080709-41.964764-110.248963 0-44.672432 16.146749-84.142375 46.696532-114.14162 2.033309-1.997494 4.065596-3.88754 6.084579-5.677303l-69.272713-116.354008c-11.212366 3.01466-24.240077 5.158487-38.623669 5.158487-27.381627 0-53.80851-7.582699-78.54796-22.538319-33.208333-20.075221-57.81987-49.625234-71.169923-85.453231-1.040702-2.791579-1.976004-5.52176-2.817162-8.178263l-96.851838 0c-10.69355 30.209022-31.501458 72.193229-69.223594 97.53029-19.132756 12.851703-41.203424 19.126616-65.594951 19.126616-0.004093 0-0.007163 0-0.011256 0-18.886139 0-36.630269-3.780093-51.361785-8.754385l-73.780377 116.615974c1.50426 1.364067 3.016707 2.849908 4.52813 4.332678 20.935822 20.544919 46.145993 57.011458 47.348378 113.917516 1.195222 56.623625-20.643156 92.76987-39.174208 113.110127-0.960885 1.055029-1.925862 2.089591-2.888793 3.085268l62.328557 95.2739c11.501962-1.76418 25.295106-3.157923 40.145325-3.157923 33.683147 0 62.873979 7.154957 86.762039 21.263279C437.326277 781.459035 456.316793 810.048163 465.970664 835.649238z" p-id="17228"></path></svg>