<?xml version="1.0" standalone="no"?><!DOCTYPE svg PUBLIC "-//W3C//DTD SVG 1.1//EN" "http://www.w3.org/Graphics/SVG/1.1/DTD/svg11.dtd"><svg t="1539656145856" class="icon" style="" viewBox="0 0 1024 1024" version="1.1" xmlns="http://www.w3.org/2000/svg" p-id="13747" xmlns:xlink="http://www.w3.org/1999/xlink" width="128" height="128"><defs><style type="text/css"></style></defs><path d="M388 188.4c-152.8 0-277.1 124.6-277.1 277.8C110.9 619.4 235.2 744 388 744c152.7 0 277-124.6 277-277.8 0-153.2-124.3-277.8-277-277.8z m0 491.3c-117.4 0-212.8-95.8-212.8-213.5S270.7 252.7 388 252.7c117.3 0 212.8 95.8 212.8 213.5-0.1 117.7-95.5 213.5-212.8 213.5z" p-id="13748"></path><path d="M634 0c-96.1 0-180.8 49.3-230.6 124 25 1.1 49.3 4.9 72.6 11.2 39-43.4 95.2-70.9 157.9-70.9 117.3 0 212.8 95.8 212.8 213.5 0 83.4-48 155.6-117.7 190.7-0.2 25.1-3.3 49.5-8.7 73C831 505 911.1 400.7 911.1 277.8 911.1 124.6 786.8 0 634 0zM110.5 664.8c-0.5 0.5-1 0.8-1.4 1.3C76.8 702.1-26 832.4 6.2 998c3 15.4 16.4 26 31.5 26 2 0 4.1-0.2 6.2-0.6 17.4-3.4 28.8-20.3 25.4-37.7C44 855.2 122.2 749.3 153 713.6c-15.7-14.9-29.9-31.2-42.5-48.8zM666.2 663.6c-12.5 17.6-26.5 34-42.1 48.9 30.1 34.5 110.2 141.3 84.6 273.1-3.4 17.4 8 34.3 25.4 37.7 2.1 0.4 4.1 0.6 6.2 0.6 15.1 0 28.5-10.7 31.5-26C804.1 832.3 701.2 702 668.9 666l-2.7-2.4zM914.9 477.6c-0.7-0.8-1.6-1.5-2.4-2.2-12.4 17.6-26.6 33.9-42.2 48.8 30.2 34.7 110.1 141.3 84.4 273-3.4 17.4 8 34.3 25.4 37.7 2.1 0.4 4.1 0.6 6.2 0.6 15.1 0 28.5-10.7 31.5-26 32.3-165.5-70.6-295.9-102.9-331.9z" p-id="13749"></path></svg>